<svg xmlns="http://www.w3.org/2000/svg" xmlns:xlink="http://www.w3.org/1999/xlink" width="170" height="51"><defs><linearGradient id="a" x1="-14.3" y1="13.7" x2="213.6" y2="50.1" gradientUnits="userSpaceOnUse"><stop offset="0" stop-color="#2b7ec3"/><stop offset="1" stop-color="#2db9c5"/></linearGradient><linearGradient id="b" x1="-13.9" y1="11.5" x2="214" y2="47.8" xlink:href="#a"/><linearGradient id="c" x1="-13.5" y1="8.9" x2="214.4" y2="45.2" xlink:href="#a"/><linearGradient id="d" x1="-12.9" y1="5.4" x2="215" y2="41.7" xlink:href="#a"/><linearGradient id="e" x1="-11.9" y1="-.9" x2="216" y2="35.4" xlink:href="#a"/><linearGradient id="f" x1="-12.4" y1="2.1" x2="215.5" y2="38.4" xlink:href="#a"/><linearGradient id="g" x1="-13" y1="5.5" x2="214.9" y2="41.9" xlink:href="#a"/><linearGradient id="h" x1="-17.6" y1="34.4" x2="210.3" y2="70.8" xlink:href="#a"/><linearGradient id="i" x1="-17.3" y1="32.5" x2="210.6" y2="68.9" xlink:href="#a"/><linearGradient id="j" x1="-16.9" y1="30.3" x2="211" y2="66.7" xlink:href="#a"/><linearGradient id="k" x1="-16.6" y1="28.1" x2="211.3" y2="64.5" xlink:href="#a"/><linearGradient id="l" x1="-16.3" y1="26.2" x2="211.6" y2="62.5" xlink:href="#a"/><linearGradient id="m" x1="-16" y1="24.4" x2="211.9" y2="60.8" xlink:href="#a"/><linearGradient id="n" x1="-15.7" y1="22.6" x2="212.2" y2="59" xlink:href="#a"/><linearGradient id="o" x1="-15.5" y1="21.2" x2="212.4" y2="57.5" xlink:href="#a"/><linearGradient id="p" x1="-15.2" y1="19.4" x2="212.7" y2="55.8" xlink:href="#a"/><linearGradient id="q" x1="-14.9" y1="17.3" x2="213" y2="53.7" xlink:href="#a"/><linearGradient id="r" x1="-15" y1="18.5" x2="212.9" y2="54.8" xlink:href="#a"/><linearGradient id="s" x1="-14.9" y1="17.7" x2="213" y2="54.1" xlink:href="#a"/><linearGradient id="t" x1="-14.7" y1="16.3" x2="213.2" y2="52.7" xlink:href="#a"/><linearGradient id="u" x1="-15.3" y1="20.4" x2="212.6" y2="56.7" xlink:href="#a"/><linearGradient id="v" x1="-15.6" y1="21.8" x2="212.3" y2="58.1" xlink:href="#a"/><linearGradient id="w" x1="-15.8" y1="23.2" x2="212.1" y2="59.5" xlink:href="#a"/></defs><path d="M53.6 34a1.8 1.8 0 0 1-.7-1.4 1.7 1.7 0 0 1 1.7-1.7 1.8 1.8 0 0 1 1.1.3 9.4 9.4 0 0 0 6 2.2c2.2 0 3.7-1 3.7-2.6v-.1c0-1.6-.8-2.4-4.8-3.3-4.6-1.1-7.1-2.4-7.1-6.3V21c0-3.7 3-6.2 7.2-6.2a12.2 12.2 0 0 1 6.8 2 1.7 1.7 0 0 1 .8 1.4 1.7 1.7 0 0 1-1.8 1.7 2.2 2.2 0 0 1-1-.2 8.8 8.8 0 0 0-4.8-1.6c-2.2 0-3.5 1.1-3.5 2.5 0 1.7 1 2.4 5 3.4 4.5 1.1 6.7 2.7 6.7 6.3 0 4-3.1 6.4-7.5 6.4a13.6 13.6 0 0 1-7.8-2.6z" fill="url(#a)"/><path d="M74 17.3a2 2 0 0 1 2.6-1.9 2 2 0 0 1 1.4 1.9v17a2 2 0 0 1-1.4 2 2 2 0 0 1-2.6-2z" fill="url(#b)"/><path d="M82.3 26a10.7 10.7 0 0 1 11-11 11.1 11.1 0 0 1 7.2 2.2 2 2 0 0 1 .7 1.5 1.9 1.9 0 0 1-1.8 1.9 2.4 2.4 0 0 1-1.2-.4 8.2 8.2 0 0 0-5.1-1.7c-3.9 0-7 3.4-7 7.5 0 4.4 3 7.6 7.3 7.6a8.6 8.6 0 0 0 5.1-1.6v-4h-4.1a1.6 1.6 0 0 1-1.6-1.6 1.7 1.7 0 0 1 1.7-1.7h6a1.8 1.8 0 0 1 1.8 2v5.6a2.6 2.6 0 0 1-1.3 2.4 13.5 13.5 0 0 1-7.6 2.2c-6.8 0-11.1-4.8-11.1-11z" fill="url(#c)"/><path d="M107 17.1a1.8 1.8 0 0 1 1.9-1.9h.4a2.5 2.5 0 0 1 2 1L121.7 30V17a1.8 1.8 0 0 1 1.8-1.8 1.8 1.8 0 0 1 1.9 1.8v17.8a1.8 1.8 0 0 1-1.8 1.9h-.2a2.4 2.4 0 0 1-2-1.1l-10.8-14.2V35a1.8 1.8 0 0 1-1.8 1.8 1.8 1.8 0 0 1-1.9-1.8z" fill="url(#d)"/><path d="M154.4 17.1a1.9 1.9 0 0 1 3.7 0v16.1h9.6a1.7 1.7 0 0 1 0 3.4h-11.4a1.8 1.8 0 0 1-1.9-1.9z" fill="url(#e)"/><path d="M150 34.2l-7.8-17.8a2.4 2.4 0 0 0-2.2-1.7h-.2a2.6 2.6 0 0 0-2.2 1.7l-8 17.6a2.1 2.1 0 0 0-.2 1 1.7 1.7 0 0 0 1.7 1.7 1.7 1.7 0 0 0 1.8-1.1l7-15.9 6.8 15.8a1.9 1.9 0 0 0 1.8 1.3 1.8 1.8 0 0 0 1.8-1.8 1 1 0 0 0-.2-.8z" fill="url(#f)"/><path d="M140 31.9a2 2 0 1 0 0-4 2 2 0 0 0 0 4z" fill="url(#g)"/><path d="M56.4 41.6h-1.8c-.8 0-1.6 0-1.6.3v7.6a.9.9 0 0 0 .7 1 .7.7 0 0 0 .8-.8v-2.1h1.7c2 0 3.5-1 3.5-3 0-1.8-1.3-3-3.4-3zm-.3 4.7h-1.8v-3.1h1.8c1.1 0 1.9.5 1.9 1.5s-.8 1.6-1.9 1.6z" fill="url(#h)"/><path d="M70 47a2.7 2.7 0 0 0 1.3-4.5 3.4 3.4 0 0 0-2.5-.9h-3.1a.7.7 0 0 0-.7.9v7.2a.8.8 0 0 0 .8.7.7.7 0 0 0 .7-.7v-2.4h2l2 2.7a.9.9 0 0 0 .8.4.7.7 0 0 0 .7-.7.7.7 0 0 0-.2-.6zm-1.3-1h-2.2v-2.9h2.2c1.1 0 1.8.5 1.8 1.5 0 .9-.7 1.4-1.8 1.4z" fill="url(#i)"/><path d="M81.9 41.6a4.5 4.5 0 1 0 0 9 4.5 4.5 0 0 0 4.5-4.6 4.4 4.4 0 0 0-4.5-4.4zm0 7.5a3 3 0 0 1-.1-6.1 3 3 0 0 1 3 3.1 2.8 2.8 0 0 1-3 3z" fill="url(#j)"/><path d="M91.6 46.1a4.4 4.4 0 0 1 4.5-4.5 4.8 4.8 0 0 1 3 1 .8.8 0 0 1 .3.6.7.7 0 0 1-.7.7.9.9 0 0 1-.5-.1 3 3 0 0 0-2-.8 3.1 3.1 0 0 0 0 6.1 3.5 3.5 0 0 0 2.1-.8.7.7 0 0 1 .5-.1.7.7 0 0 1 .5 1.3 4.4 4.4 0 0 1-3.2 1 4.4 4.4 0 0 1-4.5-4.4z" fill="url(#k)"/><path d="M105 49.7v-7.2a.8.8 0 0 1 .8-.8h5a.7.7 0 1 1 0 1.3h-4.3v2.3h3.8a.7.7 0 0 1 .6.7.6.6 0 0 1-.6.7h-3.8V49h4.4a.7.7 0 1 1 0 1.3h-5.1a.7.7 0 0 1-.8-.6z" fill="url(#l)"/><path d="M116.8 49.5a.8.8 0 0 1-.3-.6.7.7 0 0 1 .7-.7.9.9 0 0 1 .5.1 3.8 3.8 0 0 0 2.5 1c1 0 1.5-.6 1.5-1.2s-.3-1-2-1.3c-1.8-.5-2.9-1-2.9-2.6 0-1.5 1.3-2.5 3-2.5a5 5 0 0 1 2.8.8.8.8 0 0 1-.8 1.3 3.8 3.8 0 0 0-2-.7c-1 0-1.4.5-1.4 1 0 .7.4 1 2.1 1.5 1.9.4 2.8 1 2.8 2.5 0 1.6-1.3 2.6-3.1 2.6a6.2 6.2 0 0 1-3.4-1.2z" fill="url(#m)"/><path d="M128.5 49.5a.8.8 0 0 1-.4-.6.7.7 0 0 1 .8-.7.9.9 0 0 1 .5.1 3.8 3.8 0 0 0 2.4 1c1 0 1.5-.6 1.5-1.2s-.3-1-2-1.3c-1.8-.5-2.8-1-2.8-2.6 0-1.5 1.2-2.5 3-2.5a5 5 0 0 1 2.7.8.8.8 0 0 1-.8 1.3 3.8 3.8 0 0 0-2-.7c-.9 0-1.4.5-1.4 1 0 .7.4 1 2.1 1.5 1.9.4 2.8 1 2.8 2.5 0 1.6-1.3 2.6-3.1 2.6a6.2 6.2 0 0 1-3.3-1.2z" fill="url(#n)"/><path d="M140 42.2a1 1 0 0 1 1-1 1 1 0 0 1 1 1V50a1.1 1.1 0 0 1-1 1 1 1 0 0 1-1-1z" fill="url(#o)"/><path d="M148.2 42.5a.7.7 0 0 1 .8-.8h.1c.4 0 .6.1.8.4l4.4 5.7v-5.3a.7.7 0 0 1 1.5 0v7.3a.7.7 0 0 1-.8.7 1 1 0 0 1-.8-.5l-4.5-5.8v5.5a.7.7 0 1 1-1.5 0v-7.2z" fill="url(#p)"/><path d="M161.4 46.1a4.5 4.5 0 0 1 4.5-4.5 4.9 4.9 0 0 1 3 .9.8.8 0 0 1-.4 1.3 1.2 1.2 0 0 1-.5-.1 3.3 3.3 0 0 0-2.1-.7 3.1 3.1 0 0 0 .1 6.2 3.6 3.6 0 0 0 2.1-.6v-1.7h-1.8a.7.7 0 1 1 0-1.3h2.5a.8.8 0 0 1 .8.8v2.4a1 1 0 0 1-.6 1 5.6 5.6 0 0 1-3 1 4.6 4.6 0 0 1-4.6-4.7z" fill="url(#q)"/><path d="M29 51a2.2 2.2 0 0 1-2-2V2a2.2 2.2 0 0 1 2-2 2.2 2.2 0 0 1 2 2v47a2.2 2.2 0 0 1-2 2z" fill="url(#r)"/><path d="M37 35a2.4 2.4 0 0 1-2-2V19a2.4 2.4 0 0 1 2-2 2.3 2.3 0 0 1 2 2v14a2.3 2.3 0 0 1-2 2z" fill="url(#s)"/><path d="M46 40a2.4 2.4 0 0 1-2-2V14a2.4 2.4 0 0 1 2-2 2.3 2.3 0 0 1 2 2v24a2.4 2.4 0 0 1-2 2z" fill="url(#t)"/><path d="M20 35a2.2 2.2 0 0 1-2-2V19a2.2 2.2 0 0 1 2-2 2.2 2.2 0 0 1 2 2v14a2.2 2.2 0 0 1-2 2z" fill="url(#u)"/><path d="M11 40a2.2 2.2 0 0 1-2-2V14a2.2 2.2 0 0 1 2-2 2.2 2.2 0 0 1 2 2v24a2.2 2.2 0 0 1-2 2z" fill="url(#v)"/><path d="M2 31a2.2 2.2 0 0 1-2-2v-6a2.2 2.2 0 0 1 2-2 2.2 2.2 0 0 1 2 2v6a2.2 2.2 0 0 1-2 2z" fill="url(#w)"/></svg>